<svg width="89" height="32" viewBox="0 0 89 32" fill="none" xmlns="http://www.w3.org/2000/svg">
<path d="M27 9H5C4.44772 9 4 9.44772 4 10V25C4 25.5523 4.44772 26 5 26H27C27.5523 26 28 25.5523 28 25V10C28 9.44772 27.5523 9 27 9Z" stroke="#FEFAE9" stroke-width="2" stroke-linecap="round" stroke-linejoin="round"/>
<path d="M10 3L16 9L22 3" stroke="#FEFAE9" stroke-width="2" stroke-linecap="round" stroke-linejoin="round"/>
<path d="M23.5 16C24.3284 16 25 15.3284 25 14.5C25 13.6716 24.3284 13 23.5 13C22.6716 13 22 13.6716 22 14.5C22 15.3284 22.6716 16 23.5 16Z" fill="#FEFAE9"/>
<path d="M23.5 22C24.3284 22 25 21.3284 25 20.5C25 19.6716 24.3284 19 23.5 19C22.6716 19 22 19.6716 22 20.5C22 21.3284 22.6716 22 23.5 22Z" fill="#FEFAE9"/>
<path d="M19 26V9" stroke="#FEFAE9" stroke-width="2" stroke-linecap="round" stroke-linejoin="round"/>
<path d="M53.5907 8.758L48.3617 23.5H43.8677L38.6387 8.758H42.4607L46.1147 19.888L49.7897 8.758H53.5907ZM64.2686 20.896H58.7666L57.8846 23.5H54.1256L59.4596 8.758H63.6176L68.9516 23.5H65.1506L64.2686 20.896ZM63.3446 18.124L61.5176 12.727L59.7116 18.124H63.3446ZM87.27 8.758V23.5H83.679V14.659L80.382 23.5H77.4839L74.1659 14.638V23.5H70.5749V8.758H74.8169L78.9539 18.964L83.0489 8.758H87.27Z" fill="#FEFAE9"/>
</svg>
