<svg width="21" height="14" viewBox="0 0 21 14" fill="none" xmlns="http://www.w3.org/2000/svg">
<rect x="0.5" width="20" height="14" rx="2" fill="#FEFAE9"/>
<mask id="mask0_4002_220" style="mask-type:luminance" maskUnits="userSpaceOnUse" x="0" y="0" width="21" height="14">
<rect x="0.5" width="20" height="14" rx="2" fill="white"/>
</mask>
<g mask="url(#mask0_4002_220)">
<rect x="0.5" width="20" height="14" fill="#043CAE"/>
<path fill-rule="evenodd" clip-rule="evenodd" d="M9.82636 2.99376L10.4998 2.80046L11.1732 2.99376L10.976 2.33379L11.1732 1.67383L10.4998 1.86713L9.82636 1.67383L10.0236 2.33379L9.82636 2.99376ZM9.82636 12.3271L10.4998 12.1338L11.1732 12.3271L10.976 11.6671L11.1732 11.0072L10.4998 11.2005L9.82636 11.0072L10.0236 11.6671L9.82636 12.3271ZM15.2617 7.46713L14.5883 7.66043L14.7855 7.00046L14.5883 6.3405L15.2617 6.53379L15.9351 6.3405L15.7379 7.00046L15.9351 7.66043L15.2617 7.46713ZM5.06445 7.66043L5.73789 7.46713L6.41132 7.66043L6.21408 7.00046L6.41132 6.3405L5.73789 6.53379L5.06445 6.3405L5.2617 7.00046L5.06445 7.66043ZM14.6237 5.13379L13.9503 5.32709L14.1475 4.66713L13.9503 4.00716L14.6237 4.20046L15.2972 4.00716L15.0999 4.66713L15.2972 5.32709L14.6237 5.13379ZM5.70243 9.99376L6.37586 9.80046L7.0493 9.99376L6.85205 9.3338L7.0493 8.67383L6.37586 8.86713L5.70243 8.67383L5.89967 9.3338L5.70243 9.99376ZM12.8807 3.42568L12.2073 3.61898L12.4046 2.95901L12.2073 2.29904L12.8807 2.49234L13.5542 2.29904L13.3569 2.95901L13.5542 3.61898L12.8807 3.42568ZM7.44541 11.7019L8.11884 11.5086L8.79228 11.7019L8.59503 11.0419L8.79228 10.3819L8.11884 10.5752L7.44541 10.3819L7.64265 11.0419L7.44541 11.7019ZM14.6237 9.80046L13.9503 9.99376L14.1475 9.3338L13.9503 8.67383L14.6237 8.86713L15.2972 8.67383L15.0999 9.3338L15.2972 9.99376L14.6237 9.80046ZM5.70243 5.32709L6.37586 5.13379L7.0493 5.32709L6.85205 4.66713L7.0493 4.00716L6.37586 4.20046L5.70243 4.00716L5.89967 4.66713L5.70243 5.32709ZM12.8807 11.5086L12.2073 11.7019L12.4046 11.0419L12.2073 10.3819L12.8807 10.5752L13.5542 10.3819L13.3569 11.0419L13.5542 11.7019L12.8807 11.5086ZM7.44541 3.61898L8.11884 3.42568L8.79228 3.61898L8.59503 2.95901L8.79228 2.29904L8.11884 2.49234L7.44541 2.29904L7.64265 2.95901L7.44541 3.61898Z" fill="#FFD429"/>
</g>
</svg>
