<svg width="21" height="14" viewBox="0 0 21 14" fill="none" xmlns="http://www.w3.org/2000/svg">
<rect x="0.5" width="20" height="14" rx="2" fill="#FEFAE9"/>
<mask id="mask0_4002_244" style="mask-type:luminance" maskUnits="userSpaceOnUse" x="0" y="0" width="21" height="14">
<rect x="0.5" width="20" height="14" rx="2" fill="white"/>
</mask>
<g mask="url(#mask0_4002_244)">
<path fill-rule="evenodd" clip-rule="evenodd" d="M20.5 0H0.5V0.933333H20.5V0ZM20.5 1.86667H0.5V2.8H20.5V1.86667ZM0.5 3.73333H20.5V4.66667H0.5V3.73333ZM20.5 5.6H0.5V6.53333H20.5V5.6ZM0.5 7.46667H20.5V8.4H0.5V7.46667ZM20.5 9.33333H0.5V10.2667H20.5V9.33333ZM0.5 11.2H20.5V12.1333H0.5V11.2ZM20.5 13.0667H0.5V14H20.5V13.0667Z" fill="#D02F44"/>
<rect x="0.5" width="8.57143" height="6.53333" fill="#46467F"/>
<g filter="url(#filter0_d_4002_244)">
<path fill-rule="evenodd" clip-rule="evenodd" d="M2.40453 1.40026C2.40453 1.65799 2.19133 1.86693 1.92834 1.86693C1.66535 1.86693 1.45215 1.65799 1.45215 1.40026C1.45215 1.14253 1.66535 0.933594 1.92834 0.933594C2.19133 0.933594 2.40453 1.14253 2.40453 1.40026ZM4.30929 1.40026C4.30929 1.65799 4.09609 1.86693 3.8331 1.86693C3.57011 1.86693 3.35691 1.65799 3.35691 1.40026C3.35691 1.14253 3.57011 0.933594 3.8331 0.933594C4.09609 0.933594 4.30929 1.14253 4.30929 1.40026ZM5.73786 1.86693C6.00086 1.86693 6.21405 1.65799 6.21405 1.40026C6.21405 1.14253 6.00086 0.933594 5.73786 0.933594C5.47487 0.933594 5.26167 1.14253 5.26167 1.40026C5.26167 1.65799 5.47487 1.86693 5.73786 1.86693ZM8.11881 1.40026C8.11881 1.65799 7.90562 1.86693 7.64262 1.86693C7.37963 1.86693 7.16643 1.65799 7.16643 1.40026C7.16643 1.14253 7.37963 0.933594 7.64262 0.933594C7.90562 0.933594 8.11881 1.14253 8.11881 1.40026ZM2.88072 2.80026C3.14371 2.80026 3.35691 2.59133 3.35691 2.33359C3.35691 2.07586 3.14371 1.86693 2.88072 1.86693C2.61773 1.86693 2.40453 2.07586 2.40453 2.33359C2.40453 2.59133 2.61773 2.80026 2.88072 2.80026ZM5.26167 2.33359C5.26167 2.59133 5.04847 2.80026 4.78548 2.80026C4.52249 2.80026 4.30929 2.59133 4.30929 2.33359C4.30929 2.07586 4.52249 1.86693 4.78548 1.86693C5.04847 1.86693 5.26167 2.07586 5.26167 2.33359ZM6.69024 2.80026C6.95324 2.80026 7.16643 2.59133 7.16643 2.33359C7.16643 2.07586 6.95324 1.86693 6.69024 1.86693C6.42725 1.86693 6.21405 2.07586 6.21405 2.33359C6.21405 2.59133 6.42725 2.80026 6.69024 2.80026ZM8.11881 3.26693C8.11881 3.52466 7.90562 3.73359 7.64262 3.73359C7.37963 3.73359 7.16643 3.52466 7.16643 3.26693C7.16643 3.00919 7.37963 2.80026 7.64262 2.80026C7.90562 2.80026 8.11881 3.00919 8.11881 3.26693ZM5.73786 3.73359C6.00086 3.73359 6.21405 3.52466 6.21405 3.26693C6.21405 3.00919 6.00086 2.80026 5.73786 2.80026C5.47487 2.80026 5.26167 3.00919 5.26167 3.26693C5.26167 3.52466 5.47487 3.73359 5.73786 3.73359ZM4.30929 3.26693C4.30929 3.52466 4.09609 3.73359 3.8331 3.73359C3.57011 3.73359 3.35691 3.52466 3.35691 3.26693C3.35691 3.00919 3.57011 2.80026 3.8331 2.80026C4.09609 2.80026 4.30929 3.00919 4.30929 3.26693ZM1.92834 3.73359C2.19133 3.73359 2.40453 3.52466 2.40453 3.26693C2.40453 3.00919 2.19133 2.80026 1.92834 2.80026C1.66535 2.80026 1.45215 3.00919 1.45215 3.26693C1.45215 3.52466 1.66535 3.73359 1.92834 3.73359ZM3.35691 4.20026C3.35691 4.45799 3.14371 4.66693 2.88072 4.66693C2.61773 4.66693 2.40453 4.45799 2.40453 4.20026C2.40453 3.94253 2.61773 3.73359 2.88072 3.73359C3.14371 3.73359 3.35691 3.94253 3.35691 4.20026ZM4.78548 4.66693C5.04847 4.66693 5.26167 4.45799 5.26167 4.20026C5.26167 3.94253 5.04847 3.73359 4.78548 3.73359C4.52249 3.73359 4.30929 3.94253 4.30929 4.20026C4.30929 4.45799 4.52249 4.66693 4.78548 4.66693ZM7.16643 4.20026C7.16643 4.45799 6.95324 4.66693 6.69024 4.66693C6.42725 4.66693 6.21405 4.45799 6.21405 4.20026C6.21405 3.94253 6.42725 3.73359 6.69024 3.73359C6.95324 3.73359 7.16643 3.94253 7.16643 4.20026ZM7.64262 5.60026C7.90562 5.60026 8.11881 5.39133 8.11881 5.13359C8.11881 4.87586 7.90562 4.66693 7.64262 4.66693C7.37963 4.66693 7.16643 4.87586 7.16643 5.13359C7.16643 5.39133 7.37963 5.60026 7.64262 5.60026ZM6.21405 5.13359C6.21405 5.39133 6.00086 5.60026 5.73786 5.60026C5.47487 5.60026 5.26167 5.39133 5.26167 5.13359C5.26167 4.87586 5.47487 4.66693 5.73786 4.66693C6.00086 4.66693 6.21405 4.87586 6.21405 5.13359ZM3.8331 5.60026C4.09609 5.60026 4.30929 5.39133 4.30929 5.13359C4.30929 4.87586 4.09609 4.66693 3.8331 4.66693C3.57011 4.66693 3.35691 4.87586 3.35691 5.13359C3.35691 5.39133 3.57011 5.60026 3.8331 5.60026ZM2.40453 5.13359C2.40453 5.39133 2.19133 5.60026 1.92834 5.60026C1.66535 5.60026 1.45215 5.39133 1.45215 5.13359C1.45215 4.87586 1.66535 4.66693 1.92834 4.66693C2.19133 4.66693 2.40453 4.87586 2.40453 5.13359Z" fill="url(#paint0_linear_4002_244)"/>
</g>
</g>
<defs>
<filter id="filter0_d_4002_244" x="1.45215" y="0.933594" width="6.66699" height="5.66699" filterUnits="userSpaceOnUse" color-interpolation-filters="sRGB">
<feFlood flood-opacity="0" result="BackgroundImageFix"/>
<feColorMatrix in="SourceAlpha" type="matrix" values="0 0 0 0 0 0 0 0 0 0 0 0 0 0 0 0 0 0 127 0" result="hardAlpha"/>
<feOffset dy="1"/>
<feColorMatrix type="matrix" values="0 0 0 0 0 0 0 0 0 0 0 0 0 0 0 0 0 0 0.06 0"/>
<feBlend mode="normal" in2="BackgroundImageFix" result="effect1_dropShadow_4002_244"/>
<feBlend mode="normal" in="SourceGraphic" in2="effect1_dropShadow_4002_244" result="shape"/>
</filter>
<linearGradient id="paint0_linear_4002_244" x1="1.45215" y1="0.933594" x2="1.45215" y2="5.60026" gradientUnits="userSpaceOnUse">
<stop stop-color="white"/>
<stop offset="1" stop-color="#F0F0F0"/>
</linearGradient>
</defs>
</svg>
